<?xml version="1.0"?>
<svg version="1.1" xmlns="http://www.w3.org/2000/svg" width="500px" height="150px" style=""><path fill="#ffffff" d="M108.0595703125,131.669921875q-3.5888671875,0-6.2548828125-0.751953125l0-8.818359375q2.734375,0.68359375,4.990234375,0.68359375q3.486328125,0,4.990234375-2.17041015625t1.50390625-6.78466796875l0-46.826171875l10.595703125,0l0,46.7578125q0,8.75-3.9990234375,13.330078125t-11.826171875,4.580078125z M156.27924804688,85.458984375q-3.3154296875,0-5.1953125,2.10205078125t-2.1533203125,5.96435546875l14.62890625,0q-0.068359375-3.8623046875-2.0166015625-5.96435546875t-5.263671875-2.10205078125z M157.74897460938,117.65625q-9.228515625,0-14.423828125-5.0927734375t-5.1953125-14.423828125q0-9.6044921875,4.80224609375-14.85107421875t13.27880859375-5.24658203125q8.1005859375,0,12.6123046875,4.6142578125t4.51171875,12.7490234375l0,5.05859375l-24.6435546875,0q0.1708984375,4.443359375,2.6318359375,6.9384765625t6.904296875,2.4951171875q3.4521484375,0,6.5283203125-0.7177734375t6.42578125-2.2900390625l0,8.06640625q-2.734375,1.3671875-5.8447265625,2.03369140625t-7.587890625,0.66650390625z M202.44814453125,85.458984375q-3.3154296875,0-5.1953125,2.10205078125t-2.1533203125,5.96435546875l14.62890625,0q-0.068359375-3.8623046875-2.0166015625-5.96435546875t-5.263671875-2.10205078125z M203.91787109375,117.65625q-9.228515625,0-14.423828125-5.0927734375t-5.1953125-14.423828125q0-9.6044921875,4.80224609375-14.85107421875t13.27880859375-5.24658203125q8.1005859375,0,12.6123046875,4.6142578125t4.51171875,12.7490234375l0,5.05859375l-24.6435546875,0q0.1708984375,4.443359375,2.6318359375,6.9384765625t6.904296875,2.4951171875q3.4521484375,0,6.5283203125-0.7177734375t6.42578125-2.2900390625l0,8.06640625q-2.734375,1.3671875-5.8447265625,2.03369140625t-7.587890625,0.66650390625z M241.88364257812,116.97265625l-14.560546875-38.212890625l10.9033203125,0l7.3828125,21.7724609375q1.23046875,4.1357421875,1.5380859375,7.8271484375l0.205078125,0q0.1708984375-3.28125,1.5380859375-7.8271484375l7.3486328125-21.7724609375l10.9033203125,0l-14.560546875,38.212890625l-10.6982421875,0z M344.39912109375,117.65625q-6.7333984375,0-10.5615234375-4.8876953125l-0.546875,0q0.546875,4.78515625,0.546875,5.537109375l0,15.4833984375l-10.4248046875,0l0-55.029296875l8.4765625,0l1.4697265625,4.9560546875l0.478515625,0q3.6572265625-5.673828125,10.8349609375-5.673828125q6.767578125,0,10.595703125,5.2294921875t3.828125,14.5263671875q0,6.1181640625-1.79443359375,10.6298828125t-5.10986328125,6.8701171875t-7.79296875,2.3583984375z M341.32294921875,86.3818359375q-3.8623046875,0-5.6396484375,2.37548828125t-1.845703125,7.84423828125l0,1.1279296875q0,6.15234375,1.82861328125,8.818359375t5.79345703125,2.666015625q7.0068359375,0,7.0068359375-11.552734375q0-5.6396484375-1.72607421875-8.45947265625t-5.41748046875-2.81982421875z M399.18129882813,105.625q0,5.87890625-4.08447265625,8.955078125t-12.21923828125,3.076171875q-4.169921875,0-7.109375-0.56396484375t-5.5029296875-1.65771484375l0-8.61328125q2.9052734375,1.3671875,6.54541015625,2.2900390625t6.40869140625,0.9228515625q5.673828125,0,5.673828125-3.28125q0-1.23046875-0.751953125-1.99951171875t-2.59765625-1.7431640625t-4.921875-2.27294921875q-4.4091796875-1.845703125-6.47705078125-3.41796875t-3.0078125-3.60595703125t-0.93994140625-5.00732421875q0-5.0927734375,3.94775390625-7.87841796875t11.19384765625-2.78564453125q6.904296875,0,13.4326171875,3.0078125l-3.14453125,7.51953125q-2.87109375-1.23046875-5.3662109375-2.0166015625t-5.0927734375-0.7861328125q-4.6142578125,0-4.6142578125,2.4951171875q0,1.4013671875,1.48681640625,2.4267578125t6.51123046875,3.0419921875q4.4775390625,1.8115234375,6.5625,3.3837890625t3.076171875,3.623046875t0.9912109375,4.8876953125z"/><path fill="#ffffff" d="M311.529296875,97.5244140625l0.068359375,0l-0.068359375,0q0.2734375,0.1708984375,0.2734375,0.341796875q0,0.3076171875-0.8544921875,0.751953125q-0.068359375,0.13671875-0.068359375,0.5126953125q0,0.341796875-0.068359375,0.478515625l0,0.205078125q0,1.1962890625-0.341796875,1.5380859375q0,0.8544921875-0.205078125,1.2646484375q0.13671875,0.68359375,0.13671875,1.0595703125q0,0.751953125-0.341796875,1.6748046875q-0.0341796875,0.1025390625-0.18798828125,0.615234375t-0.25634765625,0.7177734375q-0.0341796875,0.1025390625-0.1708984375,0.478515625t-0.2734375,0.59814453125t-0.3076171875,0.39306640625l0,0.068359375q0,0.0341796875,0.0341796875,0.15380859375t0.0341796875,0.18798828125q0,0.2392578125-0.41015625,0.8544921875q-0.205078125,0.2392578125-0.52978515625,0.76904296875t-0.52978515625,0.76904296875q-0.205078125,0.205078125-0.59814453125,0.42724609375t-0.52978515625,0.39306640625t-0.52978515625,0.52978515625t-0.52978515625,0.59814453125q-0.7861328125,1.1962890625-1.6064453125,1.6748046875q-0.1708984375,0.1025390625-0.59814453125,0.39306640625t-0.7861328125,0.478515625t-0.70068359375,0.25634765625q-0.8203125,0.205078125-0.9912109375,0.205078125q-0.0341796875,0-0.13671875-0.0341796875t-0.13671875-0.0341796875q-0.41015625-0.205078125-0.478515625-0.205078125q-0.1708984375,0-0.5810546875,0.205078125q-0.0341796875,0-0.205078125,0.0341796875t-0.2734375,0.0341796875q-0.2734375,0-0.2734375-0.2734375q-1.5380859375,1.3330078125-2.32421875,1.3330078125q-0.205078125,0-0.478515625-0.13671875q-0.13671875-0.0341796875-0.3076171875-0.15380859375t-0.2734375-0.11962890625q-0.068359375,0.068359375-0.13671875,0.068359375q-0.068359375,0.068359375-0.205078125,0.068359375l-0.95703125,0q-0.13671875-0.0341796875-0.5810546875-0.05126953125t-0.7861328125-0.068359375t-0.546875-0.15380859375l-0.13671875,0q-0.1025390625,0-0.3076171875-0.068359375t-0.3076171875-0.068359375q-0.205078125,0-0.2734375,0.068359375l-0.2392578125,0q-0.1025390625,0-0.3759765625-0.0341796875t-0.3759765625-0.0341796875q-1.4013671875-0.1708984375-1.7431640625-0.3076171875q-1.7431640625-0.751953125-1.9140625-0.888671875q-0.546875-0.2734375-0.751953125-0.2734375q-0.2734375,0-0.7861328125,0.341796875q-0.13671875,0.068359375-0.2734375,0.068359375q-0.2734375,0-0.2734375-0.2734375q0-0.546875,0.478515625-0.7861328125q-1.8798828125-1.025390625-3.349609375-2.734375q-1.162109375-0.95703125-1.2646484375-1.4013671875q-0.0341796875-0.068359375-0.15380859375-0.39306640625t-0.25634765625-0.49560546875q-0.205078125-0.3759765625-0.46142578125-1.28173828125t-0.46142578125-1.24755859375q-0.1708984375-0.341796875-0.546875-1.17919921875t-0.5126953125-1.14501953125q-0.3076171875-0.478515625-0.42724609375-1.07666015625t-0.13671875-1.48681640625t-0.05126953125-1.1962890625q-0.615234375-1.4013671875-0.615234375-2.802734375q0-0.7861328125,0.13671875-1.1279296875q0-0.1025390625-0.01708984375-1.14501953125t-0.11962890625-1.89697265625t-0.3076171875-0.888671875q-0.546875-0.1025390625-0.546875-0.615234375q0-0.341796875,0.205078125-0.546875l0.25634765625-0.341796875t0.205078125-0.29052734375t0.1025390625-0.29052734375t0.08544921875-0.478515625q-0.068359375-0.478515625-0.068359375-1.640625q-0.341796875,0.1708984375-0.5810546875,0.1708984375q-0.341796875,0-0.341796875-0.3076171875q0-0.068359375,0.13671875-0.341796875q0.0341796875-0.068359375,0.35888671875-0.39306640625t0.35888671875-0.42724609375q0-0.068359375-0.05126953125-0.18798828125t-0.05126953125-0.18798828125t0.05126953125-0.18798828125t0.05126953125-0.15380859375q0.0341796875-0.2734375,0.2392578125-1.14501953125t0.1708984375-1.31591796875q-0.068359375-0.2734375-0.068359375-0.95703125q0-1.3330078125,0.2734375-2.05078125q0.13671875-0.3759765625,0.341796875-1.0595703125t0.39306640625-1.1962890625t0.46142578125-0.95703125q0-0.5126953125,0.205078125-0.8203125q0.1708984375-0.341796875,0.2734375-0.4443359375l0-0.13671875q0-0.2734375,0.2734375-0.546875l0-0.205078125q0-0.478515625,0.3759765625-0.7177734375q0.3759765625-0.205078125,0.478515625-0.888671875q0.0341796875-0.546875,0.59814453125-1.11083984375t1.14501953125-0.87158203125q0.751953125-0.95703125,1.0595703125-1.1279296875t1.0595703125-0.73486328125t1.38427734375-0.90576171875t1.17919921875-0.3759765625l0.3759765625,0q0.546875,0,0.751953125-0.2734375q0.068359375-0.068359375,0.15380859375-0.22216796875t0.13671875-0.2392578125t0.1708984375-0.1708984375t0.25634765625-0.08544921875q0.2734375,0,0.478515625,0.205078125l0.205078125,0l0.13671875,0q0.2734375,0.0341796875,0.52978515625-0.18798828125t0.46142578125-0.29052734375q0.41015625-0.13671875,0.68359375-0.13671875q0.1708984375,0,0.56396484375,0.0341796875t0.56396484375,0.0341796875q0.341796875,0,0.546875-0.068359375l0.2392578125,0q0.205078125,0,0.478515625,0.13671875q0.41015625-0.1025390625,0.751953125-0.2734375q0.0341796875,0,0.11962890625-0.0341796875t0.11962890625-0.0341796875q0.1708984375,0,0.46142578125,0.1025390625t0.42724609375,0.1025390625q0.13671875-0.068359375,0.5810546875-0.068359375q0.546875,0,0.751953125,0.205078125q0.1025390625,0,0.41015625-0.0341796875t0.4443359375-0.0341796875q0.2734375,0,0.546875,0.13671875q0.068359375-0.068359375,0.341796875-0.068359375q0.4443359375,0,1.0595703125,0.205078125q0.2392578125-0.0341796875,0.63232421875,0.18798828125t0.49560546875,0.25634765625q2.1533203125,0.478515625,4.0673828125,1.48681640625t2.4267578125,2.54638671875q0.751953125,0.8544921875,1.3330078125,2.05078125q0.205078125,0.205078125,0.41015625,0.52978515625t0.41015625,0.7177734375t0.3076171875,0.56396484375q0.1025390625,0.341796875,0.341796875,0.68359375q0.0341796875,0.068359375,0.341796875,0.41015625t0.3076171875,0.5810546875q0,0.13671875-0.068359375,0.2734375q0.8203125,1.50390625,0.8203125,3.7255859375q0.13671875-0.13671875,0.341796875-0.13671875q0.3759765625,0,0.3759765625,0.2734375q0,0.205078125-0.3076171875,0.41015625q-0.205078125,0.1025390625-0.205078125,0.205078125q0,0.1708984375,0.068359375,0.2392578125q0.13671875-0.068359375,0.3076171875-0.068359375q0.341796875,0,0.341796875,0.546875q0,0.341796875-0.13671875,0.615234375q-0.3076171875,0.5126953125-0.3076171875,0.9228515625q0,0.068359375,0.05126953125,0.2392578125t0.05126953125,0.2392578125q0.41015625-0.13671875,0.478515625-0.13671875q0.341796875,0,0.341796875,0.41015625q0,0.478515625-0.341796875,0.9228515625q-0.2734375,0.2734375-0.2734375,0.5810546875q0,0.13671875,0.068359375,0.42724609375t0.068359375,0.46142578125l0,0.341796875q0,0.6494140625-0.13671875,1.0595703125l0,0.41015625q0,0.7861328125-0.068359375,1.0595703125q0.341796875,0.7861328125,0.341796875,2.32421875q0,0.751953125-0.13671875,0.95703125l0,0.205078125q0,0.546875-0.205078125,1.572265625q-0.068359375,0.1708984375-0.11962890625,0.5810546875t-0.11962890625,0.5810546875q0.3759765625,0,0.3759765625,0.4443359375z M306.265625,98.5498046875l1.0595703125-0.615234375q-0.205078125,0-1.0595703125,0.615234375q2.4609375-1.3671875,2.666015625-1.4697265625t0.29052734375-0.15380859375t0.15380859375-0.13671875t0.08544921875-0.1025390625t0.068359375-0.1708984375l0.08544921875-0.25634765625q-0.5810546875,0.3759765625-1.6748046875,1.14501953125t-1.6748046875,1.14501953125z M296.1142578125,114.6484375l-0.068359375,0l-0.068359375,0l0.13671875,0q0.341796875-0.1708984375,0.6494140625-0.478515625q-0.2392578125,0.13671875-0.70068359375,0.39306640625t-0.70068359375,0.39306640625q0.1708984375,0.0341796875,0.3759765625-0.13671875t0.3759765625-0.1708984375z M304.3857421875,111.50390625l0,0.068359375l0-0.068359375z M306.744140625,108.427734375l-0.068359375,0l0.068359375,0q-0.13671875,0.1708984375-2.2216796875,1.3330078125l0.546875,0q0.3759765625,0,0.6494140625-0.205078125q0.3759765625-0.2392578125,0.615234375-0.7177734375q0.068359375-0.2392578125,0.41015625-0.41015625z M302.7109375,111.23046875l0-0.068359375l-0.068359375,0.13671875l0.068359375-0.068359375q0.2734375-0.41015625,0.41015625-0.546875q-0.6494140625,0.41015625-1.93115234375,1.23046875t-1.93115234375,1.2646484375q0.546875-0.3076171875,1.72607421875-0.97412109375t1.72607421875-0.97412109375z M301.6513671875,113.2470703125l-0.068359375,0l0.068359375,0q-0.0341796875,0-0.1025390625,0.05126953125t-0.1025390625,0.05126953125q0.0341796875,0,0.068359375,0.0341796875t0.068359375,0.0341796875q0-0.1025390625,0.068359375-0.1708984375z M308.384765625,104.736328125q-0.068359375,0.1708984375-0.41015625,0.41015625t-0.76904296875,0.478515625t-0.52978515625,0.341796875q-0.615234375,0.478515625-1.8798828125,1.41845703125t-1.8798828125,1.45263671875q-0.9228515625,0.7177734375-2.75146484375,2.0849609375t-2.71728515625,2.05078125q1.162109375-0.68359375,3.349609375-1.93115234375t3.076171875-1.76025390625q1.50390625-0.8203125,2.9736328125-1.7431640625q0.1025390625-0.1025390625,0.341796875-0.1025390625l0.13671875,0q0.068359375-0.068359375,0.18798828125-0.35888671875t0.15380859375-0.39306640625q0.3076171875-0.9228515625,0.7177734375-1.9482421875z M308.7265625,102.0703125l-0.2734375,0.068359375l0.2734375-0.068359375q-0.8544921875,0.3076171875-1.845703125,0.87158203125t-1.52099609375,0.90576171875t-1.79443359375,1.1962890625t-1.50390625,1.025390625q-1.09375,0.751953125-3.41796875,2.2900390625q-0.0341796875,0.0341796875-0.3759765625,0.32470703125t-0.49560546875,0.41015625t-0.35888671875,0.35888671875t-0.3076171875,0.4443359375q-0.205078125,0.7177734375-0.9228515625,0.7177734375q-0.615234375,0-0.95703125-0.5810546875q-0.13671875-0.13671875-0.2392578125-0.13671875q-0.1708984375,0-0.7861328125,0.42724609375t-0.8203125,0.42724609375q-0.341796875,0-0.751953125-0.13671875q-0.205078125,0-0.32470703125,0.13671875t-0.18798828125,0.39306640625t-0.13671875,0.35888671875q-1.3671875,2.2900390625-1.6064453125,2.939453125q0.4443359375,0,1.982421875-1.025390625q0.615234375-0.3076171875,1.640625-0.90576171875t1.3671875-0.80322265625q1.162109375-0.68359375,3.4521484375-2.06787109375t3.4521484375-2.10205078125q0.3759765625-0.2392578125,2.51220703125-1.58935546875t3.29833984375-1.99951171875q0.1025390625-0.0341796875,0.32470703125-0.13671875t0.32470703125-0.13671875l0-0.341796875l0-1.2646484375z M286.8857421875,112.4951171875q0.478515625-0.2734375,0.478515625-0.41015625q-0.2392578125,0-0.478515625,0.41015625q0.7177734375-0.3759765625,4.2041015625-2.529296875q-0.4443359375-0.2734375-0.6494140625-0.615234375q-0.1025390625-0.068359375-0.18798828125-0.18798828125t-0.11962890625-0.18798828125t-0.1025390625-0.068359375q-0.0341796875,0-0.341796875,0.3076171875q-1.9482421875,2.0849609375-2.802734375,3.28125z M288.08203125,105.693359375q0.1025390625,0.205078125-0.13671875,0.59814453125t-0.546875,0.73486328125t-0.68359375,0.73486328125t-0.41015625,0.46142578125q-0.341796875,0.4443359375-1.00830078125,1.24755859375t-1.00830078125,1.21337890625q0.4443359375-0.2734375,1.4013671875-0.80322265625t1.4013671875-0.80322265625q0.2734375-0.1708984375,0.83740234375-0.49560546875t0.83740234375-0.49560546875q0.41015625-0.205078125,0.41015625-0.2734375q0-0.13671875-0.068359375-0.205078125q-0.751953125-1.2646484375-1.162109375-4.2724609375q-0.1025390625,0.068359375-0.32470703125,0.205078125t-0.32470703125,0.205078125q0.41015625,0,0.41015625,0.205078125q0,0.1708984375-0.25634765625,0.42724609375t-0.59814453125,0.49560546875l-0.3076171875,0.2734375q-0.2734375,0.1708984375-2.255859375,1.7431640625q-3.0078125,2.255859375-2.87109375,2.59765625q0.1708984375-0.068359375,1.845703125-1.298828125t3.12744140625-2.06787109375t1.69189453125-0.42724609375z M281.0068359375,108.564453125q0.0341796875,0.0341796875,0.068359375,0.1025390625t0.068359375,0.1025390625q0.4443359375-0.546875,1.4697265625-1.4013671875l-0.3076171875,0.15380859375t-0.4443359375,0.2392578125t-0.41015625,0.25634765625t-0.341796875,0.29052734375t-0.1025390625,0.25634765625z M280.5966796875,107.607421875q0.068359375,0,2.20458984375-1.45263671875t2.34130859375-1.65771484375q0.0341796875-0.0341796875,0.56396484375-0.341796875t0.80322265625-0.478515625t0.66650390625-0.478515625t0.56396484375-0.615234375t0.13671875-0.5810546875q-1.435546875,0.7177734375-5.1953125,3.41796875l-0.478515625,0.3759765625q-0.4443359375,0.3759765625-0.888671875,0.66650390625t-0.7177734375,0.29052734375q-0.1708984375,0-0.3076171875-0.13671875q0.068359375,0.13671875,0.15380859375,0.49560546875t0.15380859375,0.49560546875z M278.8193359375,100.6689453125q2.2900390625-1.2646484375,4.6142578125-2.666015625q2.0849609375-1.162109375,3.0419921875-1.7431640625q0.888671875-0.341796875,0.95703125-0.7177734375q-2.4951171875,1.3330078125-4.3408203125,2.4609375q-0.1708984375,0.1025390625-1.86279296875,1.07666015625t-2.40966796875,1.58935546875z M279.33203125,104.2236328125l0.341796875-0.205078125l-0.341796875,0.205078125q0.478515625-0.3076171875,1.435546875-0.93994140625t1.435546875-0.93994140625q-0.3076171875,0.1708984375-0.95703125,0.52978515625t-0.95703125,0.52978515625q-0.0341796875,0.0341796875-0.35888671875,0.18798828125t-0.46142578125,0.2734375t-0.13671875,0.29052734375l0,0.068359375z M277.9306640625,93.935546875l0-0.068359375l0,0.068359375q0,0.068359375,0.2392578125-0.11962890625t0.56396484375-0.46142578125t0.39306640625-0.3076171875q0.41015625-0.3759765625,1.23046875-1.11083984375t1.2646484375-1.14501953125q2.32421875-1.845703125,3.9306640625-3.28125q-3.8623046875,2.7001953125-6.15234375,3.9990234375q-0.2734375,0.13671875-0.83740234375,0.41015625t-0.83740234375,0.41015625q0.205078125,0.5126953125,0.205078125,1.6064453125z M277.9990234375,89.5263671875q-0.0341796875-0.13671875,0.05126953125-0.32470703125t0.2392578125-0.41015625t0.341796875-0.42724609375t0.4443359375-0.4443359375t0.42724609375-0.39306640625t0.41015625-0.35888671875t0.3076171875-0.2392578125q1.845703125-1.6748046875,4.2724609375-3.41796875q-4.169921875,2.4267578125-5.3662109375,3.212890625q-0.068359375,0.0341796875-0.29052734375,0.15380859375t-0.3076171875,0.1708984375t-0.25634765625,0.1708984375t-0.2392578125,0.205078125t-0.11962890625,0.22216796875t-0.05126953125,0.2734375l0,0.205078125q0.13671875,0.341796875,0.13671875,1.4013671875z M290.2353515625,69.599609375q-7.0751953125,4.1357421875-8.88671875,5.4345703125q2.7685546875-1.162109375,8.88671875-5.4345703125z M287.2958984375,70.21484375q-0.1025390625,0.1025390625-0.3076171875,0.341796875t-0.3076171875,0.341796875q0.1708984375-0.1025390625,0.546875-0.3076171875t0.546875-0.3076171875q-0.1708984375-0.0341796875-0.205078125-0.08544921875t-0.068359375-0.05126953125q-0.068359375,0-0.205078125,0.068359375z M279.537109375,78.828125l0,0.068359375l0-0.068359375q-0.068359375,0.13671875-0.205078125,0.2734375q1.3671875-1.162109375,4.08447265625-3.43505859375t4.08447265625-3.43505859375q-0.3076171875,0.205078125-1.14501953125,0.751953125t-1.28173828125,0.83740234375t-1.162109375,0.7177734375t-1.35009765625,0.73486328125t-1.28173828125,0.546875q-0.13671875,0-0.546875,0.13671875q-0.41015625,0.8203125-0.5810546875,0.9912109375q0,0.4443359375-0.615234375,1.8798828125z M280.2890625,79.8876953125l-0.205078125,0.13671875q0,0.0341796875,0.1708984375-0.05126953125t0.3076171875-0.18798828125l0.1708984375-0.068359375q-0.0341796875,0-0.1025390625,0.0341796875t-0.1708984375,0.068359375t-0.1708984375,0.068359375q-0.13671875,0.1025390625-0.546875,0.341796875t-0.73486328125,0.478515625t-0.46142578125,0.478515625q1.025390625-0.3759765625,4.3408203125-2.2216796875q5.400390625-3.1103515625,10.4248046875-6.2890625q-0.478515625,0.2734375-3.5546875,1.96533203125t-4.6826171875,2.64892578125q-2.7001953125,1.6064453125-4.78515625,2.59765625z M301.0361328125,70.419921875q-0.3076171875,0.205078125-0.3076171875,0.2734375l0.3076171875-0.2734375q-0.1025390625,0.068359375-2.529296875,1.8115234375q0.478515625-0.2734375,1.48681640625-0.83740234375t1.52099609375-0.83740234375q-0.068359375-0.068359375-0.205078125-0.068359375t-0.2734375-0.068359375z M303.326171875,71.3427734375q-0.13671875-0.1025390625-1.24755859375,0.90576171875t-1.69189453125,1.58935546875q3.212890625-2.2216796875,3.28125-2.2900390625q-0.068359375-0.068359375-0.341796875-0.205078125z M304.7958984375,72.3681640625q0,0.1025390625-1.298828125,1.31591796875t-1.572265625,1.41845703125q1.0595703125-0.5126953125,1.7431640625-0.95703125q0.0341796875-0.0341796875,0.42724609375-0.3076171875t0.70068359375-0.42724609375t0.478515625-0.11962890625q-0.068359375-0.068359375-0.478515625-0.9228515625z M306.12890625,74.6240234375q-0.2734375,0.205078125-0.76904296875,0.6494140625t-0.56396484375,0.478515625q1.1279296875-0.6494140625,1.6748046875-0.6494140625q-0.205078125-0.205078125-0.341796875-0.478515625z M306.5390625,75.8203125q-0.0341796875-0.0341796875-0.1025390625,0.068359375q-0.0341796875,0.13671875-0.0341796875,0.205078125l0,0.068359375q0.0341796875,0,0.13671875-0.341796875q-0.341796875-0.068359375-1.2646484375,0.41015625q-1.3671875,0.751953125-3.5546875,2.392578125q-0.3076171875,0.2734375-1.4697265625,1.09375q-0.205078125,0.205078125-0.2734375,0.3076171875t-0.08544921875,0.3076171875t-0.05126953125,0.3759765625q0.068359375,0.205078125,0.068359375,0.5810546875l0,0.68359375q0,0.5126953125,0.068359375,0.7861328125q1.8798828125-1.7431640625,4.6142578125-4.580078125q0.0341796875-0.0341796875,0.49560546875-0.478515625t0.6494140625-0.6494140625t0.4443359375-0.56396484375t0.35888671875-0.66650390625z M308.453125,78.69140625l-0.8544921875,0.478515625l0.8544921875-0.478515625q-5.9130859375,3.41796875-6.1865234375,3.5546875q-0.0341796875,0-0.7177734375,0.341796875t-1.0595703125,0.615234375t-0.3759765625,0.5126953125q0,0.0341796875,0.0341796875,0.615234375t0.1708984375,0.7861328125q3.0078125-2.2216796875,5.400390625-4.1357421875l0.8203125-0.5810546875q0.7861328125-0.5810546875,1.35009765625-1.0595703125t0.56396484375-0.6494140625z M308.7265625,79.443359375q0,0.068359375-3.349609375,2.734375q1.6064453125-1.09375,2.939453125-1.6748046875q0.546875-0.2734375,0.546875-0.478515625q0-0.0341796875-0.13671875-0.5810546875z M309.615234375,84.43359375l-0.478515625,0.2734375l0.478515625-0.2734375q-3.076171875,1.9140625-7.8955078125,4.6826171875q-0.615234375,0.3759765625-1.0595703125,0.546875q-0.1708984375,0.1025390625-0.205078125,0.39306640625t-0.068359375,0.39306640625t-0.15380859375,0.5126953125t-0.11962890625,0.615234375l0,0.13671875q2.666015625-1.572265625,6.494140625-4.2724609375q0.068359375-0.068359375,0.615234375-0.41015625t0.888671875-0.59814453125t0.76904296875-0.63232421875t0.615234375-0.7177734375t0.11962890625-0.6494140625z M293.1064453125,108.90625l0.546875,0q1.1279296875,0,1.708984375-0.341796875q0.1708984375-0.2734375,0.87158203125-0.4443359375t0.80322265625-0.5810546875l0-0.1025390625q0-0.3759765625,0.32470703125-1.1962890625t0.35888671875-0.95703125q0.068359375-0.205078125,0.35888671875-0.87158203125t0.35888671875-1.00830078125l0-0.5126953125q0-0.478515625,0.0341796875-0.9912109375t0.08544921875-1.162109375t0.08544921875-0.9912109375q0-0.1708984375-0.0341796875-0.56396484375t-0.0341796875-0.56396484375l0-0.2734375l0-0.2734375q0-0.205078125,0.1025390625-0.63232421875t0.1025390625-0.63232421875q0-0.0341796875-0.0341796875-0.13671875t-0.0341796875-0.13671875q-0.2734375,0.13671875-0.7177734375,0.13671875q-0.2734375,0-0.2734375-0.2734375l0-0.13671875q0.068359375-0.4443359375,0.9912109375-0.9912109375q0-0.2392578125-0.0341796875-0.73486328125t-0.0341796875-0.73486328125l0-0.341796875q-0.2734375,0.13671875-0.546875,0.13671875q-0.3076171875,0-0.3076171875-0.205078125q0-0.13671875,0.068359375-0.205078125q0.13671875-0.2392578125,0.7177734375-0.5126953125l0-0.478515625q-0.068359375-0.13671875-0.068359375-0.68359375q0-1.4013671875,0.41015625-2.119140625q-0.7861328125,0.5126953125-0.9912109375,0.478515625q-0.2734375-0.1025390625-0.2734375-0.341796875q0-0.205078125,0.13671875-0.341796875q0.1025390625-0.1025390625,0.42724609375-0.32470703125t0.52978515625-0.42724609375t0.2392578125-0.3759765625l0-0.478515625q0-0.341796875-0.068359375-0.478515625q-0.41015625,0.41015625-0.8203125,0.41015625q-0.2392578125,0-0.2392578125-0.205078125l0-0.205078125q0.0341796875-0.2734375,0.5126953125-0.52978515625t0.478515625-0.52978515625q-0.2734375-0.95703125-0.2734375-1.982421875l0-0.2734375q-0.341796875-0.7861328125-0.341796875-2.2900390625q0-0.5810546875,0.068359375-0.7861328125q-0.068359375-0.205078125-0.18798828125-0.76904296875t-0.18798828125-0.76904296875q-0.2734375,0.2734375-0.546875,0.2734375q-0.341796875-0.1025390625-0.341796875-0.41015625q0-0.068359375,0.13671875-0.205078125q0.1025390625-0.1708984375,0.29052734375-0.25634765625t0.18798828125-0.22216796875l0-0.2392578125q-0.1025390625-0.2392578125-0.3076171875-0.70068359375t-0.3076171875-0.70068359375q-0.13671875-0.3076171875-0.3759765625-0.546875t-0.68359375-0.5126953125t-0.615234375-0.41015625q-0.13671875,0-0.478515625,0.29052734375t-0.5126953125,0.29052734375q-0.341796875,0-0.341796875-0.205078125q0-0.1708984375,0.1708984375-0.39306640625t0.3076171875-0.25634765625q-0.068359375-0.068359375-0.2734375-0.068359375q-0.2392578125,0-0.52978515625,0.205078125t-0.46142578125,0.41015625t-0.46142578125,0.56396484375t-0.35888671875,0.42724609375q-0.6494140625,0.6494140625-1.0595703125,0.8544921875q-0.1708984375,0.1025390625-0.32470703125,0.32470703125t-0.32470703125,0.35888671875q-0.2734375,0.205078125-0.39306640625,0.29052734375t-0.2392578125,0.2392578125t-0.13671875,0.205078125t-0.1025390625,0.341796875t-0.15380859375,0.46142578125t-0.13671875,0.66650390625t-0.13671875,0.66650390625q-0.1708984375,1.09375-0.3076171875,1.4697265625q0,0.1708984375,0.068359375,0.56396484375t0.068359375,0.56396484375q0.1025390625,0.41015625,0.1025390625,1.0595703125q0,1.162109375-0.3076171875,2.0849609375l0,0.2734375q0,0.1708984375-0.0341796875,0.546875t-0.0341796875,0.5810546875q0.2734375,0,0.2734375,0.2734375q0,0.3076171875-0.13671875,0.4443359375q-0.205078125,0.13671875-0.205078125,0.341796875l0,0.205078125l0,0.205078125q0,0.2392578125,0.068359375,0.7177734375t0.068359375,0.68359375l0.0341796875,0.1708984375q0.0341796875,0.1708984375,0.0341796875,0.3076171875q0,0.6494140625-0.205078125,0.8544921875q-0.13671875,0.13671875-0.13671875,0.478515625q0,0.1025390625,0.0341796875,0.3759765625t0.0341796875,0.41015625l0,0.205078125l0.068359375,0.205078125q0.068359375,0,0.2734375,0.068359375q0.3076171875,0,0.3076171875,0.2734375t-0.3076171875,0.3759765625q-0.13671875,0.13671875-0.13671875,0.205078125q0,0.1025390625,0.22216796875,0.41015625t0.22216796875,0.478515625q0,0.2392578125-0.068359375,0.3759765625q-0.0341796875,0.1025390625-0.1025390625,0.205078125t-0.068359375,0.13671875l0,0.205078125l0,0.2734375q-0.0341796875,0.1025390625-0.22216796875,0.341796875t-0.18798828125,0.4443359375q0.2734375-0.2734375,0.6494140625-0.2734375q0.205078125,0,0.2734375,0.13671875q0,0.0341796875,0.0341796875,0.1025390625t0.0341796875,0.1025390625q0,0.13671875-0.11962890625,0.25634765625t-0.32470703125,0.2392578125t-0.2734375,0.18798828125q0.6494140625,0,0.6494140625,0.4443359375q0,0.3759765625-0.5126953125,0.888671875q0.1025390625,0.3076171875,0.1025390625,0.7861328125l0,0.2734375q0.0341796875,0.1025390625,0.13671875,0.2392578125t0.13671875,0.2392578125q0,0.1708984375-0.205078125,0.9912109375q0.068359375,0.13671875,0.068359375,0.68359375q0.13671875,0.2734375,0.13671875,1.1279296875q0.068359375,0.205078125,0.1708984375,0.8203125t0.3076171875,0.9228515625q0.068359375,0.1708984375,0.2392578125,0.56396484375t0.2392578125,0.56396484375q0.8203125-0.41015625,0.8544921875-0.41015625q0.13671875,0,0.2734375,0.13671875q0.068359375,0.068359375,0.068359375,0.205078125q0,0.1708984375-0.68359375,0.8544921875q0.0341796875,0.068359375,0.1708984375,0.1708984375t0.1708984375,0.1708984375q0.6494140625,0.751953125,1.6748046875,0.751953125z M277.9306640625,90.654296875q0.068359375,0.068359375,0.068359375,0.13671875q3.0078125-2.2216796875,5.810546875-3.9990234375l-0.478515625,0.2734375l-0.95703125,0.546875t-1.162109375,0.66650390625t-1.24755859375,0.751953125t-1.0595703125,0.70068359375t-0.76904296875,0.5810546875t-0.205078125,0.341796875z M278.2041015625,83.9892578125l0-0.068359375l0,0.068359375q-0.0341796875-0.1025390625,1.09375-0.9228515625t2.40966796875-1.72607421875t1.45263671875-1.04248046875q1.3330078125-0.8544921875,3.212890625-2.255859375q0.95703125-0.7177734375,1.77734375-1.2646484375q0.068359375-0.068359375,0.478515625-0.32470703125t0.478515625-0.42724609375q-5.1611328125,3.2470703125-8.75,5.0927734375q-0.95703125,0.478515625-1.6748046875,0.7177734375q-0.478515625,0.205078125-0.478515625,0.8203125q0,0.13671875,0.0341796875,0.4443359375t0.0341796875,0.478515625q0,0.2734375-0.068359375,0.41015625z M287.7060546875,84.70703125l-0.068359375,0l0.068359375,0l-0.8203125,0.41015625q0.1025390625-0.0341796875,0.32470703125-0.08544921875t0.35888671875-0.11962890625t0.13671875-0.205078125z M288.423828125,77.4267578125q0,0.068359375-0.2734375,0.25634765625t-0.6494140625,0.42724609375t-0.478515625,0.3076171875q-0.8203125,0.615234375-1.7431640625,1.23046875q-0.5126953125,0.341796875-3.076171875,2.255859375q2.529296875-1.708984375,4.6826171875-2.802734375q0.1025390625-0.0341796875,0.49560546875-0.22216796875t0.63232421875-0.25634765625q0.13671875-0.0341796875,0.22216796875-0.18798828125t0.1025390625-0.3076171875t0.05126953125-0.39306640625t0.0341796875-0.3076171875z M281.0751953125,84.43359375l-0.41015625,0.2734375q0,0.0341796875,0.1708984375-0.05126953125t0.341796875-0.205078125t0.1708984375-0.15380859375q-0.068359375,0-0.2734375,0.13671875q-0.8203125,0.5810546875-2.87109375,2.0849609375q5.263671875-3.28125,7.3486328125-4.4775390625q0.3076171875-0.13671875,0.90576171875-0.46142578125t0.90576171875-0.46142578125q0.13671875-0.0341796875,0.22216796875-0.1025390625t0.13671875-0.205078125t0.068359375-0.22216796875t0.05126953125-0.29052734375t0.0341796875-0.2734375q-3.28125,2.4609375-6.8017578125,4.4091796875z M287.5009765625,82.041015625l-0.341796875,0.2734375l0.341796875-0.2734375q-5.1953125,3.7939453125-7.6904296875,6.15234375q4.033203125-2.939453125,6.2890625-4.1357421875q0.888671875-0.3759765625,1.4697265625-0.546875q0.068359375,0,0.068359375-0.2734375q0-0.205078125-0.068359375-0.66650390625t-0.068359375-0.52978515625z M282.203125,88.7060546875q-1.8115234375,1.09375-3.3837890625,2.2900390625q2.392578125-1.3671875,7.4853515625-4.8193359375q-1.3671875,0.6494140625-4.1015625,2.529296875z M287.3642578125,86.7919921875q-1.2646484375,1.09375-3.81103515625,3.3154296875t-3.81103515625,3.28125q0.8203125-0.5126953125,2.4267578125-1.45263671875t2.392578125-1.41845703125q0.205078125-0.1025390625,2.529296875-1.4013671875q0.341796875-0.2392578125,0.341796875-1.0595703125q0-0.2734375-0.0341796875-0.7177734375t-0.0341796875-0.546875z M287.3642578125,90.17578125q-1.3671875,1.0595703125-3.9306640625,3.16162109375t-2.939453125,2.40966796875q1.6064453125-0.95703125,5.33203125-3.349609375q0.888671875-0.546875,1.2646484375-0.9912109375t0.2734375-1.23046875z M287.0908203125,93.73046875l0.068359375,0.13671875l-0.068359375-0.13671875q0.068359375,0.068359375,0.068359375,0.2734375q0,0.1708984375-0.11962890625,0.3759765625t-0.341796875,0.41015625t-0.39306640625,0.341796875t-0.41015625,0.32470703125t-0.2734375,0.22216796875q1.7431640625-0.751953125,1.7431640625-1.162109375q0-0.205078125-0.205078125-1.640625q-0.068359375,0.4443359375-0.068359375,0.7177734375l0,0.13671875z M299.703125,79.375q0.751953125-0.7177734375,2.2216796875-2.0166015625t1.6748046875-1.4697265625q-1.3330078125,0.7861328125-4.2724609375,2.4609375q0.068359375,0.1708984375,0.18798828125,0.5126953125t0.18798828125,0.5126953125z M309.7861328125,90.654296875l0-0.068359375l0,0.068359375l0-0.41015625q-3.0419921875,2.32421875-6.1865234375,4.9560546875q-0.3076171875,0.2734375-1.07666015625,0.9228515625t-1.31591796875,1.17919921875t-0.888671875,1.11083984375q0.7177734375,0,2.0849609375-1.025390625q0.888671875-0.546875,3.6572265625-2.529296875q0.3759765625-0.2392578125,1.38427734375-1.00830078125t1.55517578125-1.11083984375q0.888671875-0.4443359375,1.0595703125-0.41015625q-0.0341796875-0.205078125-0.15380859375-0.80322265625t-0.11962890625-0.87158203125z M300.25,99.609375l0.068359375-0.068359375l-0.068359375,0.068359375q0.3759765625-0.3759765625,0.7861328125-0.68359375q-0.205078125,0.068359375-0.3759765625,0.1025390625t-0.2392578125,0.01708984375t-0.11962890625,0.05126953125t-0.05126953125,0.15380859375l0,0.35888671875z M304.7275390625,93.45703125l0.2734375-0.205078125q0-0.0341796875-0.18798828125,0.11962890625t-0.39306640625,0.32470703125l-0.1708984375,0.1708984375q0.13671875-0.13671875,0.478515625-0.41015625q1.8115234375-1.572265625,3.076171875-2.59765625q-0.8544921875,0.546875-1.82861328125,1.162109375t-2.119140625,1.35009765625t-1.79443359375,1.14501953125q-0.7177734375,0.41015625-1.3330078125,0.8203125q-0.341796875,0.2392578125-0.3759765625,0.5126953125q-0.0341796875,0.068359375-0.0341796875,0.13671875q0,0.9912109375-0.068359375,1.4013671875q1.4013671875-1.4013671875,4.4775390625-3.9306640625z M300.044921875,103.7451171875l0-0.068359375l0,0.068359375z M300.11328125,101.796875l0,0.205078125q0.4443359375-0.341796875,1.1962890625-0.8544921875q-0.13671875,0.068359375-0.4443359375,0.1708984375t-0.49560546875,0.22216796875t-0.25634765625,0.25634765625z M300.181640625,100.8740234375l0.205078125-0.068359375l-0.205078125,0.068359375q1.572265625-0.4443359375,5.33203125-2.939453125q1.9140625-1.1962890625,4.2724609375-2.87109375q0.341796875-1.5380859375,0.341796875-1.8798828125q-1.0595703125,0.9912109375-3.41796875,2.51220703125t-2.666015625,1.76025390625q-2.32421875,1.708984375-3.0078125,2.3583984375q-0.0341796875,0.0341796875-0.3076171875,0.2734375t-0.41015625,0.42724609375t-0.13671875,0.35888671875z M310.0595703125,88.056640625q0.0341796875,0.13671875-0.70068359375,0.70068359375t-1.65771484375,1.14501953125l-0.95703125,0.615234375q-0.8203125,0.615234375-5.0244140625,3.41796875q4.716796875-3.076171875,6.494140625-4.0673828125q0.6494140625-0.41015625,1.4013671875-0.751953125q0.205078125-0.1025390625,0.2734375-0.25634765625t0.08544921875-0.41015625t0.08544921875-0.39306640625z M309.8544921875,86.9287109375l-0.5810546875,0.3759765625q0.5810546875-0.3076171875,0.5810546875-0.3759765625q-4.716796875,2.7685546875-6.6650390625,3.8623046875q-1.50390625,0.9228515625-3.076171875,1.7431640625q0.13671875,0.546875,0.13671875,0.9912109375q0,0.1025390625-0.0341796875,0.32470703125t-0.0341796875,0.29052734375q0.888671875-0.5810546875,2.6318359375-1.77734375t2.6318359375-1.77734375q0.478515625-0.3076171875,1.3671875-0.93994140625t1.3330078125-0.93994140625q0.205078125-0.1708984375,0.63232421875-0.49560546875t0.63232421875-0.49560546875q0.41015625-0.615234375,0.4443359375-0.7861328125z M300.591796875,88.7060546875l0.341796875-0.3076171875l-0.341796875,0.3076171875q0.41015625-0.2734375,1.2646484375-0.888671875t1.2646484375-0.888671875q-0.1025390625,0.068359375-0.4443359375,0.2392578125t-0.66650390625,0.341796875t-0.68359375,0.3759765625t-0.56396484375,0.42724609375t-0.1708984375,0.39306640625z M300.5234375,87.099609375l0.2734375-0.2392578125l-0.2734375,0.2392578125q0.751953125-0.546875,2.529296875-1.8115234375t3.09326171875-2.23876953125t2.44384765625-1.93115234375q-1.2646484375,0.5810546875-4.990234375,2.87109375l-2.87109375,1.9140625q-0.2734375,0.1708984375-0.2734375,0.546875q0,0.1025390625,0.0341796875,0.32470703125t0.0341796875,0.32470703125z M300.865234375,71.6845703125q-0.7177734375,0.478515625-2.05078125,1.35009765625t-2.05078125,1.31591796875q0.1708984375,0.13671875,0.49560546875,0.3759765625t0.5126953125,0.3759765625t0.3759765625,0.41015625t0.29052734375,0.5810546875q0.13671875,0.2734375,0.341796875,0.751953125t0.2734375,0.6494140625q0.13671875,0,0.13671875-0.13671875q-0.2734375-0.1025390625-0.2734375-0.205078125q0-0.1708984375,0.341796875-0.5126953125t0.5126953125-0.41015625q0.5126953125-0.5126953125,1.6064453125-1.4697265625q0.4443359375-0.41015625,1.298828125-1.24755859375t1.298828125-1.28173828125q-0.41015625,0.2734375-1.6064453125,1.11083984375t-1.845703125,1.21337890625q-1.1962890625,0.751953125-1.8115234375,0.8203125q-0.205078125,0-0.41015625-0.13671875t-0.205078125-0.341796875q0-0.13671875,0.13671875-0.205078125q1.0595703125-0.7861328125,1.6064453125-1.2646484375q1.640625-1.298828125,2.87109375-2.529296875q-0.2734375-0.068359375-0.5810546875,0.0341796875t-0.7861328125,0.4443359375z M295.9775390625,73.359375l0.13671875-0.13671875l-0.13671875,0.13671875q0.2734375-0.2392578125,0.87158203125-0.70068359375t0.87158203125-0.70068359375q-0.4443359375,0.2392578125-1.24755859375,0.76904296875t-1.24755859375,0.76904296875q0.205078125,0.068359375,0.341796875,0.068359375z M285.484375,90.791015625q-1.0595703125,0.6494140625-3.1103515625,1.82861328125t-2.4267578125,1.38427734375q-0.0341796875,0.0341796875-0.41015625,0.205078125t-0.615234375,0.29052734375t-0.5126953125,0.3076171875t-0.341796875,0.32470703125q0.13671875,1.09375,0.13671875,1.8115234375q0,0.5810546875-0.13671875,1.5380859375q0.205078125-0.1708984375,0.3759765625-0.49560546875t0.3759765625-0.46142578125q0.3076171875-0.1708984375,0.9228515625-0.52978515625t0.9228515625-0.52978515625q-1.23046875,0.615234375-1.640625,0.615234375q-0.3759765625,0-0.478515625-0.2734375q-0.068359375-0.068359375-0.068359375-0.205078125q0-0.1708984375,0.341796875-0.341796875q0.2392578125-0.1708984375,1.025390625-0.83740234375t1.23046875-0.97412109375q2.939453125-2.392578125,4.4091796875-3.6572265625z M278.4091796875,100.01953125l1.845703125-1.298828125q1.845703125-1.2646484375,3.84521484375-2.734375t2.27294921875-1.9140625q-0.205078125,0-0.49560546875,0.1708984375t-0.615234375,0.42724609375t-0.42724609375,0.32470703125q-0.546875,0.341796875-1.58935546875,1.00830078125t-1.55517578125,1.00830078125q-0.546875,0.3076171875-1.48681640625,0.9228515625t-1.31591796875,0.8544921875q-0.546875,0.3759765625-0.546875,0.546875q0,0.0341796875,0.0341796875,0.2392578125t0.0341796875,0.4443359375z M278.8193359375,103.1982421875l0.205078125-0.2392578125l-0.205078125,0.2392578125q0.751953125-0.751953125,2.87109375-1.9140625q-0.068359375,0.0341796875-0.90576171875,0.41015625t-1.435546875,0.73486328125t-0.59814453125,0.59814453125q0,0.0341796875,0.0341796875,0.08544921875t0.0341796875,0.08544921875z M281.5537109375,99.8828125q0.5810546875-0.2392578125,1.3330078125-0.751953125q-0.205078125,0.13671875-0.66650390625,0.3759765625t-0.66650390625,0.3759765625z M287.7744140625,101.2158203125q-0.068359375,0-0.205078125,0.13671875q0.205078125,0,0.205078125-0.13671875z M299.83984375,105.078125q-0.068359375,0.068359375-0.068359375,0.13671875q1.3330078125-1.09375,3.41796875-2.4609375q-0.1025390625,0.0341796875-0.8203125,0.39306640625t-1.11083984375,0.56396484375t-0.8544921875,0.59814453125t-0.56396484375,0.76904296875z M300.181640625,103.4033203125q5.60546875-3.3154296875,8.681640625-5.537109375q-0.7861328125,0.41015625-4.6142578125,2.734375q-0.546875,0.2734375-1.50390625,0.87158203125t-1.162109375,0.73486328125q-0.1025390625,0.068359375-0.46142578125,0.2392578125t-0.52978515625,0.2734375t-0.341796875,0.32470703125t-0.205078125,0.49560546875z M307.9404296875,87.3046875l0.5126953125-0.3759765625q-0.1708984375,0.1025390625-0.5126953125,0.3759765625q0.1025390625-0.068359375,0.3759765625-0.18798828125t0.5126953125-0.25634765625t0.46142578125-0.29052734375t0.341796875-0.341796875t0.05126953125-0.39306640625q-0.5126953125,0.5126953125-1.7431640625,1.4697265625z M306.197265625,85.6982421875l0.9228515625-0.5810546875q-0.3076171875,0.1708984375-0.9228515625,0.5810546875q0.068359375-0.0341796875,0.546875-0.29052734375t0.888671875-0.49560546875t0.888671875-0.546875t0.751953125-0.546875t0.205078125-0.3759765625q-1.982421875,1.4697265625-3.28125,2.255859375z M302.1982421875,86.7236328125q0.7177734375-0.4443359375,2.1875-1.31591796875t2.2216796875-1.28173828125q0.41015625-0.205078125,1.17919921875-0.6494140625t1.14501953125-0.6494140625q0.2734375-0.1708984375,0.2734375-0.4443359375q0-0.068359375-0.13671875-0.751953125q-0.95703125,0.8544921875-2.0166015625,1.640625t-2.7001953125,1.93115234375t-2.1533203125,1.52099609375z M307.3251953125,76.435546875q-0.0341796875-0.0341796875-0.1025390625-0.13671875t-0.1025390625-0.13671875q-0.3076171875,0.68359375-0.95703125,1.4697265625t-1.1279296875,1.2646484375t-1.45263671875,1.3671875t-1.24755859375,1.162109375q0.5126953125-0.3076171875,2.10205078125-1.23046875t2.40966796875-1.435546875q0.068359375-0.0341796875,0.29052734375-0.11962890625t0.32470703125-0.13671875t0.25634765625-0.13671875t0.22216796875-0.205078125t0.068359375-0.25634765625t-0.068359375-0.2734375q-0.478515625-0.8203125-0.615234375-1.1962890625z M305.650390625,73.90625q0-0.0341796875-0.0341796875-0.1025390625t-0.0341796875-0.1025390625q-0.068359375,0.205078125-0.3076171875,0.41015625t-0.66650390625,0.4443359375t-0.49560546875,0.2734375q0.0341796875-0.0341796875,0.42724609375-0.2734375t0.751953125-0.46142578125t0.35888671875-0.18798828125z M299.703125,69.94140625q-0.3076171875,0-0.5126953125-0.205078125q-0.615234375,0.41015625-0.68359375,0.478515625q-0.205078125,0.13671875-1.4013671875,0.9912109375q-0.7177734375,0.5126953125-2.87109375,2.0166015625q0.13671875,0.0341796875,0.4443359375-0.13671875t0.63232421875-0.39306640625t0.39306640625-0.25634765625q0.2734375-0.1708984375,0.87158203125-0.5126953125t0.87158203125-0.5126953125q0.41015625-0.2392578125,1.23046875-0.73486328125t1.23046875-0.73486328125l-0.068359375,0l-0.13671875,0z M298.1650390625,69.599609375l-0.068359375,0l0.068359375,0q-0.3076171875,0-0.3759765625,0.205078125q0.068359375-0.0341796875,0.18798828125-0.1025390625t0.18798828125-0.1025390625z M293.3115234375,69.2919921875l-0.068359375,0.068359375l0.068359375-0.068359375q-0.205078125,0.205078125-0.546875,0.205078125q-0.1025390625,0-0.32470703125-0.0341796875t-0.32470703125-0.0341796875q-0.2392578125,0-0.478515625,0.2392578125q-0.1708984375,0.13671875-0.49560546875,0.41015625t-0.49560546875,0.41015625q-0.2392578125,0.205078125-1.69189453125,1.41845703125t-2.20458984375,1.86279296875q-3.8623046875,3.212890625-6.015625,5.05859375q1.298828125-0.751953125,3.91357421875-2.20458984375t3.91357421875-2.20458984375q4.853515625-3.0419921875,8.134765625-5.05859375q-0.068359375-0.068359375-0.3076171875-0.068359375q-0.1708984375,0-0.615234375,0.068359375t-0.546875,0.068359375q-0.0341796875,0-0.5810546875-0.1025390625t-0.8203125-0.1025390625q-0.3759765625,0-0.5126953125,0.068359375z M279.947265625,105.419921875q0.068359375,0.13671875,0.13671875,0.46142578125t0.13671875,0.46142578125q0.0341796875-0.2734375,0.52978515625-0.68359375t1.2646484375-0.87158203125t0.80322265625-0.49560546875q0.3759765625-0.3076171875,1.162109375-0.90576171875t1.162109375-0.90576171875q1.1279296875-0.888671875,1.9482421875-1.6064453125q0.615234375-0.478515625,0.615234375-0.7861328125q0-0.13671875-0.068359375-0.2734375q-1.7431640625,0.888671875-5.2294921875,3.28125q-0.5126953125,0.2734375-1.435546875,0.90576171875t-1.09375,0.73486328125q-0.13671875,0.068359375-0.13671875,0.205078125q0,0.068359375,0.08544921875,0.205078125t0.11962890625,0.2734375z M282.33984375,110.3076171875q0.1708984375,0.068359375,0.41015625,0.32470703125t0.341796875,0.25634765625q0.13671875,0,0.205078125-0.13671875q0.68359375-0.68359375,1.1962890625-1.4013671875l1.025390625-1.23046875l1.025390625-1.23046875q-3.69140625,2.529296875-4.580078125,3.076171875q0.0341796875,0.068359375,0.18798828125,0.1708984375t0.18798828125,0.1708984375z M284.2197265625,111.845703125q0.205078125,0.1025390625,0.7861328125,0.6494140625t0.95703125,0.615234375l0-0.068359375q0-0.41015625,0.7861328125-1.4013671875q1.162109375-1.5380859375,2.734375-3.212890625q-1.0595703125,0.6494140625-3.1103515625,1.82861328125t-2.4267578125,1.38427734375q0.13671875,0.13671875,0.2734375,0.205078125z M289.4833984375,114.443359375q0.1708984375,0,0.4443359375-0.4443359375t0.546875-1.04248046875t0.341796875-0.73486328125q-1.77734375,1.298828125-2.802734375,1.8798828125q0.888671875,0.13671875,1.4697265625,0.341796875z M292.2861328125,114.580078125l0.068359375,0l-0.068359375,0q0.068359375,0,0.42724609375,0.1025390625t0.68359375,0.205078125t0.35888671875,0.068359375q0.1025390625-0.1025390625,0.341796875-0.29052734375t0.341796875-0.29052734375q0.546875-0.4443359375,1.65771484375-1.28173828125t1.69189453125-1.24755859375q0.95703125-0.7177734375,2.9052734375-2.1875t2.9052734375-2.2216796875q-8.0322265625,5.0244140625-11.89453125,7.0751953125q0.205078125,0.068359375,0.41015625,0.068359375l0.1708984375,0z M309.13671875,99.814453125q-2.666015625,1.6064453125-3.0078125,1.8115234375q-1.3671875,0.8544921875-3.623046875,2.4609375q-1.23046875,0.7177734375-2.666015625,1.8798828125q-0.205078125,0.1708984375-0.3759765625,0.3759765625t-0.2392578125,0.3076171875t-0.2392578125,0.46142578125t-0.205078125,0.42724609375q0.68359375-0.4443359375,2.27294921875-1.572265625t2.7685546875-1.9140625t2.30712890625-1.435546875q1.9482421875-1.09375,2.59765625-1.3330078125q0.1708984375-0.068359375,0.2392578125-0.341796875t0.1025390625-0.6494140625t0.068359375-0.478515625z"/></svg>
