<?xml version="1.0"?>
<svg version="1.1" xmlns="http://www.w3.org/2000/svg" width="500px" height="150px" style=""><path fill="#ffffff" d="M108.0595703125,131.669921875q-3.5888671875,0-6.2548828125-0.751953125l0-8.818359375q2.734375,0.68359375,4.990234375,0.68359375q3.486328125,0,4.990234375-2.17041015625t1.50390625-6.78466796875l0-46.826171875l10.595703125,0l0,46.7578125q0,8.75-3.9990234375,13.330078125t-11.826171875,4.580078125z M156.27924804688,85.458984375q-3.3154296875,0-5.1953125,2.10205078125t-2.1533203125,5.96435546875l14.62890625,0q-0.068359375-3.8623046875-2.0166015625-5.96435546875t-5.263671875-2.10205078125z M157.74897460938,117.65625q-9.228515625,0-14.423828125-5.0927734375t-5.1953125-14.423828125q0-9.6044921875,4.80224609375-14.85107421875t13.27880859375-5.24658203125q8.1005859375,0,12.6123046875,4.6142578125t4.51171875,12.7490234375l0,5.05859375l-24.6435546875,0q0.1708984375,4.443359375,2.6318359375,6.9384765625t6.904296875,2.4951171875q3.4521484375,0,6.5283203125-0.7177734375t6.42578125-2.2900390625l0,8.06640625q-2.734375,1.3671875-5.8447265625,2.03369140625t-7.587890625,0.66650390625z M202.44814453125,85.458984375q-3.3154296875,0-5.1953125,2.10205078125t-2.1533203125,5.96435546875l14.62890625,0q-0.068359375-3.8623046875-2.0166015625-5.96435546875t-5.263671875-2.10205078125z M203.91787109375,117.65625q-9.228515625,0-14.423828125-5.0927734375t-5.1953125-14.423828125q0-9.6044921875,4.80224609375-14.85107421875t13.27880859375-5.24658203125q8.1005859375,0,12.6123046875,4.6142578125t4.51171875,12.7490234375l0,5.05859375l-24.6435546875,0q0.1708984375,4.443359375,2.6318359375,6.9384765625t6.904296875,2.4951171875q3.4521484375,0,6.5283203125-0.7177734375t6.42578125-2.2900390625l0,8.06640625q-2.734375,1.3671875-5.8447265625,2.03369140625t-7.587890625,0.66650390625z M241.88364257812,116.97265625l-14.560546875-38.212890625l10.9033203125,0l7.3828125,21.7724609375q1.23046875,4.1357421875,1.5380859375,7.8271484375l0.205078125,0q0.1708984375-3.28125,1.5380859375-7.8271484375l7.3486328125-21.7724609375l10.9033203125,0l-14.560546875,38.212890625l-10.6982421875,0z M323.5994140625,91.9189453125q0,12.4072265625-6.15234375,19.072265625t-17.63671875,6.6650390625t-17.63671875-6.6650390625t-6.15234375-19.140625t6.16943359375-19.05517578125t17.68798828125-6.57958984375t17.61962890625,6.630859375t6.10107421875,19.072265625z M287.1296875,91.9189453125q0,8.3740234375,3.1787109375,12.6123046875t9.501953125,4.23828125q12.6806640625,0,12.6806640625-16.8505859375q0-16.884765625-12.6123046875-16.884765625q-6.3232421875,0-9.5361328125,4.25537109375t-3.212890625,12.62939453125z M358.93334960938,117.65625q-6.7333984375,0-10.5615234375-4.8876953125l-0.546875,0q0.546875,4.78515625,0.546875,5.537109375l0,15.4833984375l-10.4248046875,0l0-55.029296875l8.4765625,0l1.4697265625,4.9560546875l0.478515625,0q3.6572265625-5.673828125,10.8349609375-5.673828125q6.767578125,0,10.595703125,5.2294921875t3.828125,14.5263671875q0,6.1181640625-1.79443359375,10.6298828125t-5.10986328125,6.8701171875t-7.79296875,2.3583984375z M355.85717773438,86.3818359375q-3.8623046875,0-5.6396484375,2.37548828125t-1.845703125,7.84423828125l0,1.1279296875q0,6.15234375,1.82861328125,8.818359375t5.79345703125,2.666015625q7.0068359375,0,7.0068359375-11.552734375q0-5.6396484375-1.72607421875-8.45947265625t-5.41748046875-2.81982421875z M413.71552734375,105.625q0,5.87890625-4.08447265625,8.955078125t-12.21923828125,3.076171875q-4.169921875,0-7.109375-0.56396484375t-5.5029296875-1.65771484375l0-8.61328125q2.9052734375,1.3671875,6.54541015625,2.2900390625t6.40869140625,0.9228515625q5.673828125,0,5.673828125-3.28125q0-1.23046875-0.751953125-1.99951171875t-2.59765625-1.7431640625t-4.921875-2.27294921875q-4.4091796875-1.845703125-6.47705078125-3.41796875t-3.0078125-3.60595703125t-0.93994140625-5.00732421875q0-5.0927734375,3.94775390625-7.87841796875t11.19384765625-2.78564453125q6.904296875,0,13.4326171875,3.0078125l-3.14453125,7.51953125q-2.87109375-1.23046875-5.3662109375-2.0166015625t-5.0927734375-0.7861328125q-4.6142578125,0-4.6142578125,2.4951171875q0,1.4013671875,1.48681640625,2.4267578125t6.51123046875,3.0419921875q4.4775390625,1.8115234375,6.5625,3.3837890625t3.076171875,3.623046875t0.9912109375,4.8876953125z"/><path fill="#006fff" d=""/></svg>
